# 3ds Max Wavefront OBJ Exporter v0.97b - (c)2007 guruware
# File Created: 12.06.2018 18:51:22

mtllib mouette_03.mtl

#
# object corps
#

v  71.8560 0.0000 -66.5162
v  71.7687 1.1525 -64.7220
v  81.1428 1.1676 -64.8999
v  81.1406 0.0000 -66.7075
v  71.5742 1.9870 -59.2990
v  81.1478 2.0130 -59.4329
v  71.4644 2.3110 -50.4710
v  81.1506 2.3415 -50.5201
v  71.6184 1.9836 -38.9208
v  81.1468 2.0102 -38.8293
v  71.8366 1.1495 -28.8909
v  81.1415 1.1652 -28.6429
v  71.8745 0.0000 -24.7118
v  81.1406 -0.0000 -24.3873
v  71.8417 -1.1493 -28.5582
v  81.1413 -1.1650 -28.3044
v  71.6351 -1.9824 -38.1833
v  81.1464 -2.0089 -38.0815
v  71.4643 -2.3110 -50.4710
v  81.1506 -2.3415 -50.5201
v  71.5996 -1.9851 -60.2038
v  81.1471 -2.0111 -60.3455
v  71.7906 -1.1515 -65.1955
v  81.1423 -1.1667 -65.3770
v  90.4619 1.1522 -64.7286
v  90.3709 0.0000 -66.5236
v  90.6647 1.9865 -59.3034
v  90.7792 2.3106 -50.4736
v  90.6184 1.9832 -38.9246
v  90.3908 1.1492 -28.8996
v  90.3512 0.0000 -24.7239
v  90.3855 -1.1490 -28.5672
v  90.6010 -1.9819 -38.1873
v  90.7791 -2.3106 -50.4736
v  90.6382 -1.9846 -60.2086
v  90.4390 -1.1513 -65.2023
# 36 vertices

vn -0.0205 0.0752 -0.9970
vn -0.0081 0.9377 -0.3473
vn -0.0001 0.9339 -0.3576
vn -0.0004 0.0724 -0.9974
vn -0.0040 0.9956 -0.0933
vn 0.0000 0.9954 -0.0955
vn -0.0032 1.0000 -0.0041
vn 0.0000 1.0000 -0.0044
vn -0.0033 0.9985 0.0552
vn 0.0000 0.9984 0.0557
vn -0.0063 0.9850 0.1725
vn 0.0001 0.9845 0.1756
vn -0.0350 0.0118 0.9993
vn 0.0007 0.0107 0.9999
vn -0.0067 -0.9828 0.1847
vn 0.0001 -0.9821 0.1882
vn -0.0034 -0.9984 0.0560
vn 0.0000 -0.9984 0.0566
vn -0.0032 -1.0000 -0.0033
vn 0.0000 -1.0000 -0.0035
vn -0.0042 -0.9952 -0.0977
vn 0.0000 -0.9949 -0.1004
vn -0.0096 -0.9081 -0.4186
vn -0.0001 -0.9022 -0.4313
vn 0.0079 0.9378 -0.3470
vn 0.0199 0.0752 -0.9970
vn 0.0040 0.9956 -0.0932
vn 0.0032 1.0000 -0.0041
vn 0.0034 0.9985 0.0552
vn 0.0065 0.9850 0.1725
vn 0.0365 0.0118 0.9993
vn 0.0070 -0.9828 0.1847
vn 0.0035 -0.9984 0.0560
vn 0.0032 -1.0000 -0.0033
vn 0.0042 -0.9952 -0.0976
vn 0.0094 -0.9083 -0.4183
# 36 vertex normals

o corps
g corps
usemtl wire_088144225
s 264
f 1//1 2//2 3//3 4//4 
s 536
f 2//2 5//5 6//6 3//3 
s 1040
f 5//5 7//7 8//8 6//6 
s 528
f 7//7 9//9 10//10 8//8 
s 1040
f 9//9 11//11 12//12 10//10 
s 528
f 11//11 13//13 14//14 12//12 
s 1040
f 13//13 15//15 16//16 14//14 
s 528
f 15//15 17//17 18//18 16//16 
s 1040
f 17//17 19//19 20//20 18//18 
s 528
f 19//19 21//21 22//22 20//20 
s 1040
f 21//21 23//23 24//24 22//22 
s 536
f 23//23 1//1 4//4 24//24 
s 257
f 4//4 3//3 25//25 26//26 
s 515
f 3//3 6//6 27//27 25//25 
s 1026
f 6//6 8//8 28//28 27//27 
s 514
f 8//8 10//10 29//29 28//28 
s 1026
f 10//10 12//12 30//30 29//29 
s 514
f 12//12 14//14 31//31 30//30 
s 1026
f 14//14 16//16 32//32 31//31 
s 514
f 16//16 18//18 33//33 32//32 
s 1026
f 18//18 20//20 34//34 33//33 
s 514
f 20//20 22//22 35//35 34//34 
s 1026
f 22//22 24//24 36//36 35//35 
s 515
f 24//24 4//4 26//26 36//36 
# 24 polygons

#
# object aile_gauche_amorce
#

v  57.8292 12.7368 -65.4277
v  58.3809 13.6615 -63.7103
v  65.5411 7.2938 -64.3045
v  64.9156 6.3589 -66.0680
v  58.5515 14.5369 -58.5453
v  65.8158 8.1312 -58.9850
v  58.5779 14.9115 -50.2302
v  65.8814 8.4929 -50.3644
v  58.7159 14.3800 -39.5630
v  65.8987 8.0504 -39.1736
v  58.6909 13.3726 -30.5451
v  65.6861 7.1570 -29.5572
v  58.1115 12.4827 -26.8688
v  65.0121 6.2720 -25.5838
v  57.3005 11.8015 -30.2506
v  64.2110 5.5018 -29.2402
v  56.3246 11.6515 -38.8914
v  63.3620 5.1826 -38.4631
v  55.7450 11.7639 -50.2302
v  62.8948 5.1744 -50.3644
v  56.1598 11.7913 -59.4043
v  63.2831 5.2481 -59.8714
v  57.0069 12.0568 -64.1631
v  64.0820 5.6125 -64.7697
v  72.5942 0.9986 -64.7220
v  71.8881 0.0836 -66.5162
v  73.0078 1.7490 -59.2990
v  73.1430 2.0633 -50.4710
v  73.0385 1.7169 -38.9208
v  72.6427 0.9510 -28.8909
v  71.9018 0.0712 -24.7118
v  71.1086 -0.7611 -28.5582
v  70.3977 -1.2422 -38.1833
v  70.0510 -1.3722 -50.4710
v  70.3695 -1.2204 -60.2038
v  71.0691 -0.7286 -65.1955
# 36 vertices

vn 0.0024 0.1026 -0.9947
vn 0.6130 0.7197 -0.3258
vn 0.6086 0.7113 -0.3517
vn 0.0064 0.0916 -0.9958
vn 0.6558 0.7498 -0.0884
vn 0.6568 0.7481 -0.0940
vn 0.6601 0.7512 -0.0034
vn 0.6615 0.7500 -0.0040
vn 0.6584 0.7506 0.0555
vn 0.6599 0.7492 0.0565
vn 0.6407 0.7483 0.1720
vn 0.6423 0.7453 0.1785
vn -0.0927 0.1020 0.9905
vn -0.0771 0.0842 0.9935
vn -0.6768 -0.7129 0.1839
vn -0.6733 -0.7142 0.1912
vn -0.6775 -0.7333 0.0562
vn -0.6760 -0.7347 0.0575
vn -0.6777 -0.7353 -0.0026
vn -0.6764 -0.7365 -0.0032
vn -0.6769 -0.7303 -0.0921
vn -0.6751 -0.7311 -0.0988
vn -0.6373 -0.6627 -0.3933
vn -0.6260 -0.6540 -0.4247
vn 0.6080 0.7054 -0.3643
vn 0.0112 0.0836 -0.9964
vn 0.6583 0.7465 -0.0968
vn 0.6629 0.7487 -0.0044
vn 0.6614 0.7479 0.0565
vn 0.6452 0.7425 0.1799
vn -0.0631 0.0698 0.9956
vn -0.6700 -0.7169 0.1929
vn -0.6744 -0.7361 0.0575
vn -0.6750 -0.7378 -0.0036
vn -0.6733 -0.7323 -0.1021
vn -0.6181 -0.6515 -0.4399
# 36 vertex normals

o aile_gauche_amorce
g aile_gauche_amorce
usemtl wire_088144225
s 264
f 37//37 38//38 39//39 40//40 
s 536
f 38//38 41//41 42//42 39//39 
s 1040
f 41//41 43//43 44//44 42//42 
s 528
f 43//43 45//45 46//46 44//44 
s 1040
f 45//45 47//47 48//48 46//46 
s 528
f 47//47 49//49 50//50 48//48 
s 1040
f 49//49 51//51 52//52 50//50 
s 528
f 51//51 53//53 54//54 52//52 
s 1040
f 53//53 55//55 56//56 54//54 
s 528
f 55//55 57//57 58//58 56//56 
s 1040
f 57//57 59//59 60//60 58//58 
s 536
f 59//59 37//37 40//40 60//60 
s 257
f 40//40 39//39 61//61 62//62 
s 515
f 39//39 42//42 63//63 61//61 
s 1026
f 42//42 44//44 64//64 63//63 
s 514
f 44//44 46//46 65//65 64//64 
s 1026
f 46//46 48//48 66//66 65//65 
s 514
f 48//48 50//50 67//67 66//66 
s 1026
f 50//50 52//52 68//68 67//67 
s 514
f 52//52 54//54 69//69 68//68 
s 1026
f 54//54 56//56 70//70 69//69 
s 514
f 56//56 58//58 71//71 70//70 
s 1026
f 58//58 60//60 72//72 71//71 
s 515
f 60//60 40//40 62//62 72//72 
# 24 polygons

#
# object aile_gauche_extrême
#

v  28.1074 14.5533 -62.1140
v  27.9791 15.3716 -60.6903
v  38.0055 14.7750 -61.9426
v  38.1617 13.8600 -63.4977
v  27.6452 15.9773 -56.4422
v  37.5873 15.4568 -57.2937
v  27.6123 16.2009 -49.7301
v  37.4510 15.7164 -49.9143
v  28.4230 15.9094 -41.4280
v  38.1564 15.4056 -40.6968
v  29.5502 15.2465 -34.7996
v  39.1443 14.6825 -33.2120
v  29.9502 14.4262 -32.2378
v  39.4405 13.7718 -30.2691
v  29.4802 13.6664 -34.5909
v  39.0544 12.9085 -32.9736
v  28.3123 13.1627 -40.9202
v  38.0155 12.3263 -40.1283
v  27.3908 12.9892 -49.7301
v  37.2029 12.1186 -49.9143
v  27.4978 13.2040 -57.1449
v  37.4306 12.3543 -58.0637
v  27.9136 13.7577 -61.0652
v  37.9358 12.9719 -62.3522
v  47.8815 14.1774 -62.9346
v  48.0411 13.1787 -64.5851
v  47.4371 14.9226 -57.9866
v  47.2391 15.2117 -50.0797
v  47.8168 14.8871 -40.0737
v  48.6236 14.1156 -31.7816
v  48.8125 13.1255 -28.4591
v  48.5144 12.1693 -31.5140
v  47.6452 11.5145 -39.4502
v  46.9676 11.2750 -50.0797
v  47.2660 11.5315 -58.8078
v  47.8029 12.2083 -63.3696
v  57.5979 13.5786 -63.7103
v  57.7332 12.5104 -65.4277
v  57.1928 14.3732 -58.5453
v  56.9827 14.6845 -50.2302
v  57.4189 14.3510 -39.5630
v  58.0201 13.5422 -30.5451
v  58.1121 12.4842 -26.8688
v  57.8933 11.4480 -30.2506
v  57.2171 10.7285 -38.8914
v  56.6914 10.4598 -50.2302
v  57.0012 10.7370 -59.4043
v  57.5047 11.4681 -64.1631
# 48 vertices

vn -0.1299 0.0874 -0.9877
vn 0.0193 0.9539 -0.2995
vn 0.0189 0.9431 -0.3321
vn -0.1153 0.0788 -0.9902
vn 0.0452 0.9957 -0.0811
vn 0.0461 0.9950 -0.0881
vn 0.0491 0.9988 -0.0020
vn 0.0503 0.9987 -0.0022
vn 0.0473 0.9973 0.0569
vn 0.0483 0.9970 0.0600
vn 0.0285 0.9838 0.1771
vn 0.0273 0.9806 0.1940
vn -0.2011 0.0295 0.9791
vn -0.1933 0.0257 0.9808
vn -0.1092 -0.9758 0.1892
vn -0.1102 -0.9719 0.2079
vn -0.0904 -0.9942 0.0577
vn -0.0895 -0.9941 0.0613
vn -0.0884 -0.9961 -0.0012
vn -0.0873 -0.9962 -0.0015
vn -0.0927 -0.9921 -0.0843
vn -0.0918 -0.9915 -0.0926
vn -0.1191 -0.9241 -0.3630
vn -0.1178 -0.9074 -0.4035
vn 0.0267 0.9405 -0.3388
vn -0.0910 0.0778 -0.9928
vn 0.0492 0.9947 -0.0903
vn 0.0527 0.9986 -0.0030
vn 0.0511 0.9970 0.0587
vn 0.0327 0.9817 0.1878
vn -0.1758 0.0240 0.9841
vn -0.1047 -0.9739 0.2013
vn -0.0866 -0.9944 0.0598
vn -0.0849 -0.9964 -0.0022
vn -0.0885 -0.9915 -0.0949
vn -0.1078 -0.9053 -0.4109
vn 0.0282 0.9304 -0.3654
vn -0.0816 0.0704 -0.9942
vn 0.0505 0.9941 -0.0963
vn 0.0540 0.9985 -0.0037
vn 0.0525 0.9969 0.0594
vn 0.0344 0.9806 0.1931
vn -0.1672 0.0199 0.9857
vn -0.1027 -0.9729 0.2073
vn -0.0852 -0.9945 0.0607
vn -0.0836 -0.9965 -0.0029
vn -0.0871 -0.9910 -0.1018
vn -0.1042 -0.8903 -0.4433
# 48 vertex normals

o aile_gauche_extrême
g aile_gauche_extrême
usemtl wire_088144225
s 257
f 73//73 74//74 75//75 76//76 
s 515
f 74//74 77//77 78//78 75//75 
s 1026
f 77//77 79//79 80//80 78//78 
s 514
f 79//79 81//81 82//82 80//80 
s 1026
f 81//81 83//83 84//84 82//82 
s 514
f 83//83 85//85 86//86 84//84 
s 1026
f 85//85 87//87 88//88 86//86 
s 514
f 87//87 89//89 90//90 88//88 
s 1026
f 89//89 91//91 92//92 90//90 
s 514
f 91//91 93//93 94//94 92//92 
s 1026
f 93//93 95//95 96//96 94//94 
s 515
f 95//95 73//73 76//76 96//96 
s 264
f 76//76 75//75 97//97 98//98 
s 536
f 75//75 78//78 99//99 97//97 
s 1040
f 78//78 80//80 100//100 99//99 
s 528
f 80//80 82//82 101//101 100//100 
s 1040
f 82//82 84//84 102//102 101//101 
s 528
f 84//84 86//86 103//103 102//102 
s 1040
f 86//86 88//88 104//104 103//103 
s 528
f 88//88 90//90 105//105 104//104 
s 1040
f 90//90 92//92 106//106 105//105 
s 528
f 92//92 94//94 107//107 106//106 
s 1040
f 94//94 96//96 108//108 107//107 
s 536
f 96//96 76//76 98//98 108//108 
s 257
f 98//98 97//97 109//109 110//110 
s 515
f 97//97 99//99 111//111 109//109 
s 1026
f 99//99 100//100 112//112 111//111 
s 514
f 100//100 101//101 113//113 112//112 
s 1026
f 101//101 102//102 114//114 113//113 
s 514
f 102//102 103//103 115//115 114//114 
s 1026
f 103//103 104//104 116//116 115//115 
s 514
f 104//104 105//105 117//117 116//116 
s 1026
f 105//105 106//106 118//118 117//117 
s 514
f 106//106 107//107 119//119 118//118 
s 1026
f 107//107 108//108 120//120 119//119 
s 515
f 108//108 98//98 110//110 120//120 
# 36 polygons

#
# object saumon_aile_gauche
#

v  12.4461 0.6259 -58.2464
v  12.0313 1.0365 -57.2163
v  19.9355 7.5550 -59.1346
v  20.4767 7.0907 -60.3850
v  11.7053 1.3051 -54.1382
v  19.4324 7.7950 -55.4048
v  11.7801 1.5631 -49.2633
v  19.3794 7.9949 -49.5192
v  12.5944 2.0024 -43.2267
v  20.2062 8.3984 -42.2678
v  13.8025 2.4409 -38.4287
v  21.4891 8.7827 -36.5300
v  14.5888 2.3508 -36.5916
v  22.3298 8.5825 -34.3362
v  14.5430 1.5913 -38.2786
v  22.3792 7.7459 -36.3507
v  13.8833 0.5269 -42.8579
v  21.7591 6.5993 -41.8261
v  13.2194 -0.2249 -49.2633
v  21.1257 5.8257 -49.5192
v  12.9534 -0.2413 -54.6479
v  20.9605 5.9357 -56.0217
v  12.7707 0.1428 -57.4876
v  20.8394 6.4831 -59.4638
v  27.7884 14.0136 -60.6903
v  28.4384 13.5001 -62.1140
v  27.1320 14.2313 -56.4422
v  26.9560 14.3731 -49.7301
v  27.7489 14.7097 -41.4280
v  29.0266 14.9888 -34.7996
v  29.8772 14.6584 -32.2378
v  30.0483 13.7814 -34.5909
v  29.5332 12.6186 -40.9202
v  28.9747 11.8654 -49.7301
v  28.9073 12.0957 -57.1449
v  28.8365 12.7845 -61.0652
# 36 vertices

vn -0.5120 -0.3323 -0.7921
vn -0.9661 0.0914 -0.2416
vn -0.6434 0.6942 -0.3227
vn -0.1855 -0.0594 -0.9808
vn -0.9973 0.0430 -0.0599
vn -0.6474 0.7575 -0.0842
vn -0.9085 -0.4079 0.0910
vn -0.6451 0.7641 -0.0004
vn -0.9780 0.0018 0.2087
vn -0.6457 0.7611 0.0625
vn -0.9485 0.0890 0.3040
vn -0.6513 0.7308 0.2045
vn -0.3976 -0.3039 0.8658
vn -0.1759 -0.1246 0.9765
vn -0.1733 -0.9361 0.3060
vn 0.5701 -0.7918 0.2193
vn -0.2532 -0.9530 0.1663
vn 0.6051 -0.7936 0.0640
vn -0.1738 -0.9820 0.0738
vn 0.6088 -0.7934 0.0003
vn -0.1689 -0.9850 -0.0365
vn 0.6005 -0.7947 -0.0885
vn -0.1299 -0.9502 -0.2832
vn 0.5124 -0.7634 -0.3933
vn -0.6350 0.6871 -0.3529
vn -0.1670 -0.0581 -0.9842
vn -0.6459 0.7580 -0.0906
vn -0.6440 0.7650 -0.0008
vn -0.6446 0.7617 0.0657
vn -0.6496 0.7268 0.2230
vn -0.1702 -0.1261 0.9773
vn 0.5658 -0.7889 0.2398
vn 0.6059 -0.7927 0.0677
vn 0.6098 -0.7925 -0.0001
vn 0.6013 -0.7932 -0.0962
vn 0.5034 -0.7485 -0.4316
# 36 vertex normals

o saumon_aile_gauche
g saumon_aile_gauche
usemtl wire_088144225
s 257
f 121//121 122//122 123//123 124//124 
s 515
f 122//122 125//125 126//126 123//123 
s 1026
f 125//125 127//127 128//128 126//126 
s 514
f 127//127 129//129 130//130 128//128 
s 1026
f 129//129 131//131 132//132 130//130 
s 514
f 131//131 133//133 134//134 132//132 
s 1026
f 133//133 135//135 136//136 134//134 
s 514
f 135//135 137//137 138//138 136//136 
s 1026
f 137//137 139//139 140//140 138//138 
s 514
f 139//139 141//141 142//142 140//140 
s 1026
f 141//141 143//143 144//144 142//142 
s 515
f 143//143 121//121 124//124 144//144 
s 264
f 124//124 123//123 145//145 146//146 
s 536
f 123//123 126//126 147//147 145//145 
s 1040
f 126//126 128//128 148//148 147//147 
s 528
f 128//128 130//130 149//149 148//148 
s 1040
f 130//130 132//132 150//150 149//149 
s 528
f 132//132 134//134 151//151 150//150 
s 1040
f 134//134 136//136 152//152 151//151 
s 528
f 136//136 138//138 153//153 152//152 
s 1040
f 138//138 140//140 154//154 153//153 
s 528
f 140//140 142//142 155//155 154//154 
s 1040
f 142//142 144//144 156//156 155//155 
s 536
f 144//144 124//124 146//146 156//156 
s 2147483648
f 131//131 137//137 135//135 133//133 
f 129//129 139//139 137//137 131//131 
f 127//127 125//125 139//139 129//129 
f 143//143 141//141 122//122 121//121 
f 125//125 122//122 141//141 139//139 
# 29 polygons

#
# object aile_droite_proche
#

v  90.3228 0.1204 -66.5236
v  89.5954 1.0186 -64.7286
v  96.4405 7.4628 -64.3003
v  97.0882 6.5440 -66.0638
v  89.1680 1.7633 -59.3034
v  96.1481 8.2958 -58.9816
v  89.0280 2.0771 -50.4736
v  96.0750 8.6572 -50.3643
v  89.1368 1.7290 -38.9246
v  96.0654 8.2108 -39.1827
v  89.5460 0.9675 -28.8996
v  96.2953 7.3184 -29.5797
v  90.3086 0.1068 -24.7239
v  96.9903 6.4511 -25.6136
v  91.1246 -0.7028 -28.5672
v  97.8123 5.7046 -29.2632
v  91.8544 -1.1584 -38.1873
v  98.6745 5.4140 -38.4730
v  92.2098 -1.2741 -50.4736
v  99.1461 5.4227 -50.3643
v  91.8832 -1.1348 -60.2086
v  98.7537 5.4835 -59.8678
v  91.1650 -0.6676 -65.2023
v  97.9419 5.8221 -64.7655
v  103.3931 13.9837 -63.6773
v  103.9671 13.0754 -65.3918
v  103.2013 14.8537 -58.5213
v  103.1653 15.2268 -50.2222
v  103.0381 14.6894 -39.5788
v  103.0842 13.6802 -30.5855
v  103.6834 12.8060 -26.9207
v  104.5122 12.1503 -30.2918
v  105.4949 12.0318 -38.9090
v  106.0741 12.1632 -50.2222
v  105.6593 12.1791 -59.3787
v  104.8058 12.4197 -64.1294
# 36 vertices

vn -0.0122 0.0842 -0.9964
vn -0.6261 0.6893 -0.3645
vn -0.6266 0.6955 -0.3516
vn -0.0071 0.0931 -0.9956
vn -0.6777 0.7289 -0.0969
vn -0.6763 0.7306 -0.0940
vn -0.6824 0.7309 -0.0044
vn -0.6810 0.7323 -0.0040
vn -0.6809 0.7301 0.0566
vn -0.6794 0.7316 0.0565
vn -0.6644 0.7254 0.1802
vn -0.6616 0.7283 0.1786
vn 0.0631 0.0732 0.9953
vn 0.0767 0.0881 0.9931
vn 0.6892 -0.6984 0.1932
vn 0.6925 -0.6955 0.1914
vn 0.6940 -0.7177 0.0576
vn 0.6956 -0.7161 0.0575
vn 0.6946 -0.7194 -0.0036
vn 0.6960 -0.7180 -0.0032
vn 0.6928 -0.7139 -0.1021
vn 0.6946 -0.7125 -0.0988
vn 0.6357 -0.6342 -0.4402
vn 0.6440 -0.6363 -0.4247
vn -0.6312 0.7041 -0.3253
vn -0.0026 0.1051 -0.9945
vn -0.6752 0.7324 -0.0882
vn -0.6796 0.7336 -0.0034
vn -0.6779 0.7330 0.0555
vn -0.6599 0.7314 0.1719
vn 0.0922 0.1066 0.9900
vn 0.6960 -0.6941 0.1838
vn 0.6971 -0.7148 0.0562
vn 0.6974 -0.7167 -0.0026
vn 0.6965 -0.7116 -0.0920
vn 0.6560 -0.6446 -0.3927
# 36 vertex normals

o aile_droite_proche
g aile_droite_proche
usemtl wire_088144225
s 264
f 157//157 158//158 159//159 160//160 
s 536
f 158//158 161//161 162//162 159//159 
s 1040
f 161//161 163//163 164//164 162//162 
s 528
f 163//163 165//165 166//166 164//164 
s 1040
f 165//165 167//167 168//168 166//166 
s 528
f 167//167 169//169 170//170 168//168 
s 1040
f 169//169 171//171 172//172 170//170 
s 528
f 171//171 173//173 174//174 172//172 
s 1040
f 173//173 175//175 176//176 174//174 
s 528
f 175//175 177//177 178//178 176//176 
s 1040
f 177//177 179//179 180//180 178//178 
s 536
f 179//179 157//157 160//160 180//180 
s 257
f 160//160 159//159 181//181 182//182 
s 515
f 159//159 162//162 183//183 181//181 
s 1026
f 162//162 164//164 184//184 183//183 
s 514
f 164//164 166//166 185//185 184//184 
s 1026
f 166//166 168//168 186//186 185//185 
s 514
f 168//168 170//170 187//187 186//186 
s 1026
f 170//170 172//172 188//188 187//187 
s 514
f 172//172 174//174 189//189 188//188 
s 1026
f 174//174 176//176 190//190 189//189 
s 514
f 176//176 178//178 191//191 190//190 
s 1026
f 178//178 180//180 192//192 191//191 
s 515
f 180//180 160//160 182//182 192//192 
# 24 polygons

#
# object aile_droite_extrême
#

v  104.1184 12.6847 -65.3918
v  104.3491 13.7341 -63.6773
v  114.0321 13.4630 -62.8550
v  113.7860 12.4869 -64.4979
v  104.8246 14.4876 -58.5213
v  114.5367 14.1623 -57.9296
v  105.0613 14.7781 -50.2222
v  114.7554 14.4313 -50.0585
v  104.5930 14.4856 -39.5788
v  114.1491 14.1609 -40.0976
v  103.9160 13.7356 -30.5855
v  113.2739 13.4678 -31.8433
v  103.7273 12.6927 -26.9207
v  112.9945 12.5031 -28.5365
v  103.8554 11.6437 -30.2918
v  113.2092 11.5286 -31.5770
v  104.4707 10.8684 -38.9090
v  114.0194 10.8021 -39.4769
v  104.9749 10.5545 -50.2222
v  114.6750 10.5044 -50.0585
v  104.6912 10.8574 -59.3787
v  114.4056 10.7850 -58.7470
v  104.2535 11.6287 -64.1294
v  113.9354 11.5035 -63.2879
v  123.8745 13.1759 -61.7992
v  123.6422 12.2852 -63.3402
v  124.3407 13.8127 -57.1917
v  124.4909 14.0571 -49.8750
v  123.7622 13.8126 -40.7299
v  122.7164 13.1856 -33.2982
v  122.3378 12.3119 -30.3748
v  122.6481 11.4246 -33.0615
v  123.6287 10.7572 -40.1656
v  124.4177 10.4801 -49.8750
v  124.2221 10.7327 -57.9550
v  123.7846 11.3875 -62.2052
v  133.8643 12.8738 -60.4675
v  133.6712 12.0800 -61.8690
v  134.2333 13.4402 -56.2839
v  134.2737 13.6572 -49.6678
v  133.4471 13.4422 -41.4715
v  132.2766 12.8897 -34.9141
v  131.8052 12.1182 -32.3754
v  132.2060 11.3293 -34.7074
v  133.3140 10.7311 -40.9696
v  134.2087 10.4795 -49.6678
v  134.1359 10.6995 -56.9762
v  133.7878 11.2803 -60.8366
# 48 vertices

vn 0.0932 0.0625 -0.9937
vn 0.0571 0.9289 -0.3660
vn 0.0597 0.9389 -0.3391
vn 0.1040 0.0692 -0.9922
vn 0.0392 0.9946 -0.0964
vn 0.0406 0.9951 -0.0904
vn 0.0358 0.9994 -0.0037
vn 0.0372 0.9993 -0.0029
vn 0.0371 0.9975 0.0595
vn 0.0386 0.9975 0.0587
vn 0.0540 0.9796 0.1935
vn 0.0559 0.9806 0.1879
vn 0.1719 0.0048 0.9851
vn 0.1809 0.0082 0.9835
vn 0.0165 -0.9781 0.2077
vn 0.0184 -0.9793 0.2014
vn -0.0033 -0.9981 0.0608
vn -0.0018 -0.9982 0.0599
vn -0.0051 -1.0000 -0.0029
vn -0.0038 -1.0000 -0.0022
vn -0.0008 -0.9948 -0.1020
vn 0.0006 -0.9955 -0.0950
vn 0.0270 -0.8956 -0.4440
vn 0.0295 -0.9111 -0.4112
vn 0.0683 0.9406 -0.3327
vn 0.1300 0.0681 -0.9892
vn 0.0439 0.9951 -0.0883
vn 0.0397 0.9992 -0.0022
vn 0.0415 0.9973 0.0601
vn 0.0612 0.9791 0.1940
vn 0.1987 0.0083 0.9800
vn 0.0241 -0.9779 0.2079
vn 0.0011 -0.9981 0.0614
vn -0.0012 -1.0000 -0.0015
vn 0.0041 -0.9957 -0.0927
vn 0.0400 -0.9138 -0.4042
vn 0.0687 0.9515 -0.2998
vn 0.1462 0.0756 -0.9864
vn 0.0449 0.9957 -0.0812
vn 0.0409 0.9992 -0.0019
vn 0.0425 0.9975 0.0568
vn 0.0602 0.9825 0.1765
vn 0.2070 0.0113 0.9783
vn 0.0227 -0.9818 0.1886
vn 0.0021 -0.9983 0.0576
vn -0.0000 -1.0000 -0.0011
vn 0.0050 -0.9964 -0.0843
vn 0.0397 -0.9309 -0.3632
# 48 vertex normals

o aile_droite_extrême
g aile_droite_extrême
usemtl wire_088144225
s 264
f 193//193 194//194 195//195 196//196 
s 536
f 194//194 197//197 198//198 195//195 
s 1040
f 197//197 199//199 200//200 198//198 
s 528
f 199//199 201//201 202//202 200//200 
s 1040
f 201//201 203//203 204//204 202//202 
s 528
f 203//203 205//205 206//206 204//204 
s 1040
f 205//205 207//207 208//208 206//206 
s 528
f 207//207 209//209 210//210 208//208 
s 1040
f 209//209 211//211 212//212 210//210 
s 528
f 211//211 213//213 214//214 212//212 
s 1040
f 213//213 215//215 216//216 214//214 
s 536
f 215//215 193//193 196//196 216//216 
s 257
f 196//196 195//195 217//217 218//218 
s 515
f 195//195 198//198 219//219 217//217 
s 1026
f 198//198 200//200 220//220 219//219 
s 514
f 200//200 202//202 221//221 220//220 
s 1026
f 202//202 204//204 222//222 221//221 
s 514
f 204//204 206//206 223//223 222//222 
s 1026
f 206//206 208//208 224//224 223//223 
s 514
f 208//208 210//210 225//225 224//224 
s 1026
f 210//210 212//212 226//226 225//225 
s 514
f 212//212 214//214 227//227 226//226 
s 1026
f 214//214 216//216 228//228 227//227 
s 515
f 216//216 196//196 218//218 228//228 
s 264
f 218//218 217//217 229//229 230//230 
s 536
f 217//217 219//219 231//231 229//229 
s 1040
f 219//219 220//220 232//232 231//231 
s 528
f 220//220 221//221 233//233 232//232 
s 1040
f 221//221 222//222 234//234 233//233 
s 528
f 222//222 223//223 235//235 234//234 
s 1040
f 223//223 224//224 236//236 235//235 
s 528
f 224//224 225//225 237//237 236//236 
s 1040
f 225//225 226//226 238//238 237//237 
s 528
f 226//226 227//227 239//239 238//238 
s 1040
f 227//227 228//228 240//240 239//239 
s 536
f 228//228 218//218 230//230 240//240 
# 36 polygons

#
# object saumon_aile_droite
#

v  133.0625 10.6594 -61.8690
v  133.7531 11.0958 -60.4675
v  140.7972 3.8415 -58.8193
v  140.2242 3.4430 -60.0383
v  134.4122 11.2463 -56.2839
v  141.3014 4.0324 -55.1805
v  134.5921 11.3741 -49.6678
v  141.3638 4.2322 -49.4292
v  133.8484 11.7943 -41.4715
v  140.6003 4.7177 -42.3233
v  132.6230 12.2109 -34.9141
v  139.3921 5.2324 -36.6783
v  131.7478 11.9841 -32.3754
v  138.5476 5.1324 -34.5125
v  131.4874 11.1384 -34.7074
v  138.4114 4.3192 -36.5014
v  131.8679 9.9381 -40.9696
v  138.8913 3.1341 -41.8895
v  132.3361 9.1352 -49.6678
v  139.4264 2.3093 -49.4292
v  132.4367 9.3440 -56.9762
v  139.6116 2.3858 -55.7826
v  132.5903 10.0035 -60.8366
v  139.8007 2.8941 -59.1403
v  147.8769 -3.4703 -56.7986
v  147.4388 -3.8267 -57.7877
v  148.2058 -3.2331 -53.8394
v  148.1492 -2.9644 -49.1410
v  147.4110 -2.4517 -43.2964
v  146.2976 -1.9017 -38.6208
v  145.5289 -1.9022 -36.8200
v  145.4926 -2.6404 -38.4738
v  146.0112 -3.7339 -42.9381
v  146.5712 -4.5305 -49.1410
v  146.8397 -4.5895 -54.3297
v  147.0700 -4.2528 -57.0592
# 36 vertices

vn 0.1667 -0.0838 -0.9824
vn 0.7098 0.6087 -0.3546
vn 0.7190 0.6148 -0.3242
vn 0.1855 -0.0872 -0.9788
vn 0.7271 0.6805 -0.0910
vn 0.7286 0.6797 -0.0845
vn 0.7257 0.6880 -0.0008
vn 0.7267 0.6870 -0.0004
vn 0.7259 0.6847 0.0658
vn 0.7269 0.6839 0.0625
vn 0.7273 0.6491 0.2230
vn 0.7294 0.6530 0.2037
vn 0.1583 -0.1475 0.9763
vn 0.1643 -0.1469 0.9754
vn -0.6490 -0.7220 0.2397
vn -0.6538 -0.7245 0.2184
vn -0.6896 -0.7210 0.0677
vn -0.6889 -0.7220 0.0640
vn -0.6935 -0.7204 -0.0001
vn -0.6925 -0.7214 0.0004
vn -0.6846 -0.7225 -0.0966
vn -0.6840 -0.7241 -0.0889
vn -0.5789 -0.6906 -0.4335
vn -0.5898 -0.7044 -0.3948
vn 0.9711 -0.0180 -0.2379
vn 0.4776 -0.3926 -0.7860
vn 0.9962 -0.0664 -0.0559
vn 0.8609 -0.5001 0.0931
vn 0.9727 -0.1049 0.2072
vn 0.9532 -0.0184 0.3017
vn 0.3635 -0.3485 0.8639
vn 0.0707 -0.9502 0.3035
vn 0.1433 -0.9757 0.1659
vn 0.0616 -0.9953 0.0753
vn 0.0564 -0.9978 -0.0335
vn 0.0249 -0.9597 -0.2798
# 36 vertex normals

o saumon_aile_droite
g saumon_aile_droite
usemtl wire_088144225
s 257
f 241//241 242//242 243//243 244//244 
s 515
f 242//242 245//245 246//246 243//243 
s 1026
f 245//245 247//247 248//248 246//246 
s 514
f 247//247 249//249 250//250 248//248 
s 1026
f 249//249 251//251 252//252 250//250 
s 514
f 251//251 253//253 254//254 252//252 
s 1026
f 253//253 255//255 256//256 254//254 
s 514
f 255//255 257//257 258//258 256//256 
s 1026
f 257//257 259//259 260//260 258//258 
s 514
f 259//259 261//261 262//262 260//260 
s 1026
f 261//261 263//263 264//264 262//262 
s 515
f 263//263 241//241 244//244 264//264 
s 264
f 244//244 243//243 265//265 266//266 
s 536
f 243//243 246//246 267//267 265//265 
s 1040
f 246//246 248//248 268//268 267//267 
s 528
f 248//248 250//250 269//269 268//268 
s 1040
f 250//250 252//252 270//270 269//269 
s 528
f 252//252 254//254 271//271 270//270 
s 1040
f 254//254 256//256 272//272 271//271 
s 528
f 256//256 258//258 273//273 272//272 
s 1040
f 258//258 260//260 274//274 273//273 
s 528
f 260//260 262//262 275//275 274//274 
s 1040
f 262//262 264//264 276//276 275//275 
s 536
f 264//264 244//244 266//266 276//276 
s 2147483648
f 270//270 271//271 272//272 273//273 
f 269//269 270//270 273//273 274//274 
f 268//268 269//269 274//274 267//267 
f 276//276 266//266 265//265 275//275 
f 267//267 274//274 275//275 265//265 
# 29 polygons

