# Blender v2.79 (sub 0) OBJ File: ''
# www.blender.org
mtllib _001_porte_01_porte.mtl
o porte
v 9.880000 -3.919999 -3.950001
v 9.130000 13.500001 -3.949997
v 9.130000 13.500001 -3.449997
v 9.880000 -3.919999 -3.450001
v -8.300000 13.880001 -3.949997
v -8.300000 13.880001 -3.449997
v -8.670000 3.970001 -3.949999
v -8.670000 3.970001 -3.449999
v -7.670000 -17.959999 -3.950004
v -7.670000 -17.959999 -3.450004
v 9.630000 -17.959999 -3.950004
v 9.630000 -17.959999 -3.450004
vt 0.000000 0.000000
vt 1.000000 0.000000
vt 1.000000 1.000000
vt 0.000000 1.000000
vt 0.000000 0.000000
vt 1.000000 0.000000
vt 1.000000 1.000000
vt 0.000000 1.000000
vt 0.000000 0.000000
vt 1.000000 0.000000
vt 1.000000 1.000000
vt 0.000000 1.000000
vt 0.000000 0.000000
vt 1.000000 0.000000
vt 1.000000 1.000000
vt 0.000000 1.000000
vt 0.000000 0.000000
vt 1.000000 0.000000
vt 1.000000 1.000000
vt 0.000000 1.000000
vt 0.000000 0.000000
vt 1.000000 0.000000
vt 1.000000 1.000000
vt 0.000000 1.000000
vt 1.000000 1.000000
vt 0.000000 1.000000
vt 1.000000 1.000000
vt 0.000000 1.000000
vt 0.000000 0.000000
vt 1.000000 0.000000
vt 0.000000 0.000000
vt 1.000000 0.000000
vn 0.7121 0.0101 -0.7020
vn 0.5706 0.5807 -0.5807
vn 0.5706 0.5807 0.5807
vn 0.7121 0.0101 0.7020
vn -0.5606 0.5906 -0.5805
vn -0.5606 0.5906 0.5805
vn -0.5606 0.5905 -0.5805
vn -0.7170 0.0000 -0.6971
vn -0.7170 0.0000 0.6971
vn -0.5606 0.5905 0.5805
vn -0.5605 -0.5906 -0.5805
vn -0.5605 -0.5906 0.5805
vn -0.5606 -0.5905 -0.5805
vn 0.5707 -0.5807 -0.5807
vn 0.5707 -0.5807 0.5807
vn -0.5606 -0.5905 0.5805
vn 0.5707 -0.5807 -0.5806
vn 0.7121 0.0100 -0.7020
vn 0.7121 0.0100 0.7020
vn 0.5707 -0.5807 0.5806
vn 0.5707 0.5807 -0.5807
vn 0.7121 0.0101 -0.7021
vn -0.5606 0.5905 -0.5806
vn -0.5605 -0.5906 -0.5806
vn 0.5707 0.5807 0.5807
vn -0.5606 0.5905 0.5806
vn 0.7121 0.0101 0.7021
vn -0.5605 -0.5906 0.5806
usemtl wire_008061138
s 1
f 1/1/1 2/2/2 3/3/3 4/4/4
f 2/5/2 5/6/5 6/7/6 3/8/3
f 5/9/7 7/10/8 8/11/9 6/12/10
f 7/13/8 9/14/11 10/15/12 8/16/9
f 9/17/13 11/18/14 12/19/15 10/20/16
f 11/21/17 1/22/18 4/23/19 12/24/20
f 2/5/21 1/22/22 7/25/8 5/26/23
f 1/1/22 11/18/14 9/27/24 7/28/8
f 3/29/25 6/30/26 8/11/9 4/4/27
f 4/31/27 8/32/9 10/15/28 12/24/15
